<svg id="furgonetka-homepl" xmlns="http://www.w3.org/2000/svg" viewBox="0 0 365.294 188.166"><style>.st1{fill:none;stroke-width:1.5;stroke-linecap:round;stroke-linejoin:round;stroke-miterlimit:10}.st1,.st2,.st3{stroke:#494b52}.st2,.st3,.st4{stroke-width:1.5;stroke-linecap:round;stroke-linejoin:round;stroke-miterlimit:10}.st2{fill:#fff}.st3{fill:#e5e5e5}.st4{fill:none;stroke:#ff2a2a}.st5{fill:#fff}.st6{fill:#e5e5e5}.st11{fill:#2594c9}.st17{fill:none;stroke:#2492c9;stroke-width:1.5;stroke-linecap:round;stroke-linejoin:round;stroke-miterlimit:10}</style><path d="M311.207 187.416c0-69.036-55.964-125-125-125s-125 55.964-125 125h250z" fill="#2492c9" stroke="#2492c9" stroke-width="1.5" stroke-linecap="round" stroke-linejoin="round" stroke-miterlimit="10"/><path class="st1" d="M56.824 56.62c-7.149 0-13.383 3.915-16.675 9.719m277.875-9.433c5.94 1.037 10.94 4.811 13.653 9.975M43.457 88.952v-8.048c0-10.581 8.577-19.158 19.158-19.158h245.926c10.581 0 19.158 8.577 19.158 19.158v11.807"/><path class="st2" d="M5.351 88.952h75.001v75.001H5.351z"/><path class="st3" d="M70.57 163.953v-6.522h-7.109a20.96 20.96 0 0 0-2.576-6.228l5.022-5.022-6.913-6.913-5.022 5.022a20.96 20.96 0 0 0-6.228-2.576v-7.109h-9.783v7.109a20.96 20.96 0 0 0-6.228 2.576l-5.022-5.022-6.913 6.913 5.022 5.022a20.96 20.96 0 0 0-2.576 6.228h-7.109v6.522H70.57z"/><path class="st2" d="M51.004 162.323c0 .554-.065 1.109-.163 1.63H34.863a8.9 8.9 0 0 1-.163-1.63c0-4.5 3.652-8.152 8.152-8.152s8.152 3.652 8.152 8.152z"/><circle class="st3" cx="16.765" cy="97.104" r="1.63"/><circle class="st3" cx="26.547" cy="97.104" r="1.63"/><circle class="st3" cx="36.33" cy="97.104" r="1.63"/><path class="st1" d="M5.351 105.257h75.002"/><path class="st4" d="M50.322 124.342H36.518l-5.752-13.805h-3.451m6.991 6.903h18.317m-17.543 3.451h16.393m-19.269-6.903h21.569"/><circle class="st4" cx="38.244" cy="128.368" r="1.726"/><circle class="st4" cx="47.446" cy="128.368" r="1.726"/><path class="st5" d="M295.227 110.315h64.55v49.879h-64.55zm61.476-17.604h-58.402l-3.074 17.604h64.549z"/><path class="st6" d="M295.227 110.315h64.55v49.879h-64.55z"/><path class="st1" d="M295.227 143.415v-33.1h64.549v49.88h-32.274m29.201-67.484h-58.402l-3.074 17.604h64.549zm-29.201 0v17.604"/><path class="st1" d="M346.793 154.327h6.08m-7.115-8.151l4.075-4.075 4.075 4.075m-4.075-4.075v12.226"/><path class="st2" d="M323.765 161.162c.061-.314.098-.636.098-.967 0-.332-.037-.654-.098-.967-.294-2.763-1.775-5.169-3.97-6.64v-3.613a2.034 2.034 0 0 0-2.034-2.034h-34.577a2.034 2.034 0 0 0-2.034 2.034v3.613c-2.196 1.471-3.676 3.877-3.97 6.64a5.058 5.058 0 0 0-.098.967c0 .332.037.654.098.967.294 2.763 1.775 5.169 3.97 6.64v3.614c0 1.123.911 2.034 2.034 2.034h34.577a2.034 2.034 0 0 0 2.034-2.034v-3.614c2.195-1.471 3.675-3.877 3.97-6.64z"/><path class="st4" d="M306.22 154.447l-11.496 11.496"/><circle class="st4" cx="296.365" cy="156.088" r="2.463"/><circle class="st4" cx="304.578" cy="164.301" r="2.463"/><path class="st2" d="M.75 163.953v-24.267m0-5.081v-10.263m363.794 35.853v-27.033m0-5.66v-11.433"/><path class="st1" d="M77.544 66.871h29.875m39.445 0h10.31m6.407 0h4.699m75.305-10.251h10.541m6.887 0h7.505m64.727 14.308c.404 1.549.619 3.174.619 4.85"/><path fill-rule="evenodd" clip-rule="evenodd" fill="none" stroke="#494b52" stroke-width="1.5" stroke-linecap="round" stroke-linejoin="round" stroke-miterlimit="10" d="M185.023 61.745v41.809"/><path class="st5" d="M247.123 177.124H125.291v-74.24a2.308 2.308 0 0 1 2.308-2.308h117.216a2.308 2.308 0 0 1 2.308 2.308v74.24z"/><path class="st2" d="M247.123 141.504v35.62h-22.514m-6.836 0h-92.482v-74.24a2.308 2.308 0 0 1 2.308-2.308h117.215a2.308 2.308 0 0 1 2.308 2.308v31.988"/><path class="st5" d="M240.697 107.001l-.16 64.034H131.716v-64.034z"/><path class="st1" d="M217.773 171.035h-86.057v-64.034h108.981v27.871"/><path class="st6" d="M121.828 177.124a2.308 2.308 0 0 0-2.308 2.308v3.976l4.616 3.976H248.31l4.616-3.976v-3.976a2.308 2.308 0 0 0-2.308-2.308h-128.79z"/><path class="st5" d="M252.927 181.1v-3.976H119.52v3.976"/><path class="st1" d="M125.291 181.1h51.997m10.416 0h30.069m9.67 0h8.141m5.032-3.976H119.52v6.284l4.616 3.977h124.175l4.616-3.977v-6.284m-136.87 10.261h201.967m-264.251 0h57.177"/><path class="st3" d="M153.522 171.035l9.21-9.21m-23.198 9.21l17.675-17.675"/><path class="st2" d="M224.991 187.385a2.21 2.21 0 0 1-2.21-2.21v-43.919c0-1.22.989-2.21 2.21-2.21h25.727c1.22 0 2.21.989 2.21 2.21v44.903c0 .677-.549 1.226-1.226 1.226h-26.711z"/><path fill="#28a1d1" stroke="#494b52" stroke-width="1.5" stroke-linecap="round" stroke-linejoin="round" stroke-miterlimit="10" d="M226.096 143.466h23.517v39.5h-23.517z"/><path class="st2" d="M226.096 182.966l10.027-10.028m-3.694 10.028l5.88-5.881"/><path d="M126.343 96.535a5.289 5.289 0 0 0-5.289 5.289m.585-8.436a3.732 3.732 0 0 0-3.732 3.732" fill="none" stroke="#fff" stroke-width="1.5" stroke-linecap="round" stroke-linejoin="round" stroke-miterlimit="10"/><path d="M154.088 144.891h1.277v-3.071h2.812v-1.079h-2.812v-1.794h3.162v-1.079h-4.439v7.023zm8.223-1.019c-.076.015-.198.03-.365.046-.167.015-.319.015-.471.015-.41 0-.699-.122-.866-.365s-.243-.654-.243-1.216v-2.766h-1.231v2.964c0 .365.03.684.106.988.076.304.198.562.365.775.167.213.395.38.684.502.289.122.638.182 1.064.182.456 0 .866-.03 1.246-.091s.684-.122.927-.182v-5.138h-1.231v4.287h.015zm5.062-4.347l-.319-.046c-.106-.015-.198-.015-.289-.015-.426 0-.821.046-1.186.122-.35.076-.654.167-.882.243v5.047h1.231v-4.256c.061-.015.167-.046.319-.076s.289-.046.426-.046c.243 0 .441.015.623.061.182.03.319.076.426.106l.213-1.034c-.061-.015-.137-.046-.243-.061l-.319-.045zm3.542-.061c-.41 0-.775.061-1.11.198a2.233 2.233 0 0 0-1.338 1.368 2.998 2.998 0 0 0-.182 1.064c0 .41.061.775.167 1.094.106.319.274.578.471.79.198.213.441.365.714.471.274.106.593.167.927.167.258 0 .486-.03.684-.091.198-.061.365-.122.486-.182v.198c0 .395-.106.699-.319.897-.213.198-.562.304-1.049.304-.304 0-.593-.03-.866-.076a3.98 3.98 0 0 1-.714-.213l-.228 1.049c.243.091.532.152.836.213.304.061.623.076.942.076.882 0 1.55-.198 1.976-.593s.638-1.003.638-1.854v-4.591a11.118 11.118 0 0 0-.912-.198 6.66 6.66 0 0 0-1.123-.091zm.821 3.861a1.59 1.59 0 0 1-.426.198c-.167.061-.35.076-.547.076-.365 0-.654-.122-.882-.365-.228-.243-.334-.623-.334-1.14 0-.486.122-.866.35-1.155.243-.289.578-.441 1.018-.441.198 0 .365.015.486.03.122.015.243.03.319.061v2.736h.016zm6.475-3.116a2.318 2.318 0 0 0-.806-.562 2.556 2.556 0 0 0-1.034-.198 2.48 2.48 0 0 0-1.018.198 2.492 2.492 0 0 0-.806.562 2.678 2.678 0 0 0-.532.882c-.122.334-.182.714-.182 1.14s.061.806.182 1.14c.122.35.304.638.517.882.228.243.486.426.806.562.304.137.654.198 1.034.198s.73-.061 1.034-.198c.319-.137.578-.319.806-.562.228-.243.395-.532.517-.882s.182-.73.182-1.14c0-.426-.061-.806-.182-1.14a2.668 2.668 0 0 0-.518-.882zm-.897 3.283a1.132 1.132 0 0 1-.942.471c-.41 0-.714-.152-.942-.471-.228-.304-.334-.73-.334-1.262s.106-.942.334-1.246.547-.456.942-.456c.41 0 .714.152.942.456.228.304.334.73.334 1.246.016.533-.106.958-.334 1.262zm6.43-3.344c-.167-.213-.41-.38-.699-.502s-.654-.182-1.079-.182c-.456 0-.882.03-1.262.091s-.684.122-.927.198v5.138h1.231v-4.287c.076-.015.213-.03.38-.046s.334-.03.486-.03c.213 0 .38.03.532.091a.79.79 0 0 1 .35.274c.091.122.152.289.182.486.03.198.061.441.061.73v2.782h1.231v-2.995c0-.365-.03-.684-.106-.988a2.377 2.377 0 0 0-.38-.76zm3.937-.699a2.45 2.45 0 0 0-.912.182 2.144 2.144 0 0 0-.79.532c-.228.228-.41.532-.547.882-.137.35-.213.76-.213 1.231 0 .395.061.76.167 1.094.106.334.274.623.502.866.228.243.502.441.851.578.35.137.745.213 1.216.213.182 0 .365-.015.532-.03.182-.015.334-.046.486-.076.152-.03.289-.061.41-.106.122-.03.213-.076.274-.106l-.167-1.003a2.645 2.645 0 0 1-.578.167 3.419 3.419 0 0 1-.821.076c-.502 0-.897-.122-1.155-.35-.274-.228-.41-.562-.456-.988h3.496c0-.061.015-.137.015-.228v-.228c0-.897-.198-1.581-.608-2.022-.41-.456-.972-.684-1.702-.684zm-1.186 2.265c.015-.152.061-.304.106-.456.061-.152.137-.274.228-.395a.829.829 0 0 1 .365-.274c.137-.076.304-.106.502-.106.182 0 .334.03.471.091.137.061.243.152.334.258s.167.243.213.395c.046.152.076.319.076.486h-2.295zm7.053 2.158a2.232 2.232 0 0 1-.593.076c-.319 0-.547-.091-.684-.274-.137-.182-.198-.486-.198-.912v-2.158h1.885v-1.018h-1.885v-1.611l-1.231.198v4.591c0 .35.03.669.091.942.061.274.167.502.319.699.152.198.35.334.608.441.258.106.562.152.942.152.304 0 .578-.03.806-.091.228-.061.41-.122.562-.182l-.198-.973c-.12.029-.256.075-.424.12zm5.032-.547a8.104 8.104 0 0 0-.654-.76 7.673 7.673 0 0 0-.638-.608c.38-.38.76-.775 1.125-1.186.38-.41.73-.79 1.064-1.17h-1.444c-.106.122-.243.274-.395.456l-.486.532c-.167.182-.334.365-.517.562-.182.182-.334.365-.502.517v-4.651l-1.231.198v7.661h1.231v-2.432c.182.137.365.304.562.486.182.198.38.395.562.608.182.213.35.441.517.669.152.228.304.456.426.654h1.414a7.257 7.257 0 0 0-.456-.745 11.635 11.635 0 0 0-.578-.791zm5.548-2.63c-.076-.258-.182-.486-.35-.669a1.647 1.647 0 0 0-.669-.426c-.274-.106-.623-.152-1.018-.152-.334 0-.654.03-.958.076a4.99 4.99 0 0 0-.684.167l.152.988c.152-.061.334-.106.578-.137.243-.046.502-.061.775-.061.213 0 .38.03.517.076.137.061.243.137.334.228.091.091.137.213.182.334.03.122.046.258.046.41v.198a3.095 3.095 0 0 0-.471-.091c-.152-.015-.289-.03-.426-.03-.289 0-.562.03-.836.091a1.93 1.93 0 0 0-.699.289 1.572 1.572 0 0 0-.486.517c-.122.213-.182.471-.182.775 0 .319.046.578.152.806.106.213.243.395.441.532.182.137.41.228.669.289.258.061.547.091.866.091.486 0 .912-.03 1.292-.091s.669-.106.851-.152v-3.207a2.589 2.589 0 0 0-.076-.851zm-1.094 3.269c-.198.046-.486.061-.866.061-.304 0-.562-.061-.745-.167-.182-.106-.274-.319-.274-.608 0-.152.03-.274.106-.365a.692.692 0 0 1 .274-.228c.106-.061.243-.091.38-.106s.274-.03.41-.03c.152 0 .304.015.426.03s.228.046.289.061v1.352z" fill="#494b52"/><path class="st11" d="M207.563 150.105l-5.898-3.344h2.584c.942.547 1.885 1.079 2.706 1.566v-7.95c-.076-1.003-.654-1.885-1.444-2.417l-6.263-3.648v2.873l-1.216.699v-4.864l9.516-5.472 9.531 5.472v11.689l-9.516 5.396zm0-21.16c-2.037 1.186-6.111 3.511-7.57 4.363 2.554 1.474 5.062 2.919 6.445 3.724.76.578.973 1.064 1.125 1.398.122-.334.289-.79 1.018-1.338 1.353-.775 3.891-2.234 6.567-3.785-1.641-.957-5.548-3.176-7.585-4.362zm8.315 5.381l-6.187 3.603c-.821.532-1.429 1.429-1.505 2.462v7.95c2.599-1.505 6.263-3.633 7.707-4.454v-9.561h-.015zm-3.709 8.391l-.958.441v1.915l-1.216.699v-1.961l-1.003.456 1.55-2.873 1.627 1.323z"/><path d="M238.298 169.965l-6.235-3.565v-7.538l6.235-3.555 6.243 3.555v7.595l-6.243 3.508zm-5.438-9.564v5.458c.632.362 3.482 1.985 5.044 2.878v-5.087c-.049-.655-.431-1.225-.947-1.57l-4.098-2.367v.688zm5.442-4.19c-1.333.769-3.997 2.284-4.954 2.836 1.672.96 3.314 1.9 4.224 2.42.497.379.636.695.733.908.077-.214.192-.513.669-.874.89-.506 2.55-1.453 4.296-2.455-1.076-.62-3.632-2.066-4.968-2.835zm5.443 3.501l-4.056 2.34c-.538.341-.938.925-.989 1.597v5.16l5.044-2.896v-6.201zm-2.424 5.449l-.631.283v1.249l-.791.459v-1.271l-.653.293 1.019-1.865 1.056.852z" fill-rule="evenodd" clip-rule="evenodd" fill="#fff"/><circle cx="185.023" cy="45.75" r="45" fill="#fff" stroke="#e5e5e5" stroke-width="1.5" stroke-miterlimit="10"/><path class="st5" d="M172.64 71.27l2.368-.798a5.817 5.817 0 0 1 4.771.478 11.982 11.982 0 0 0 8.925 1.254l9.214-2.313a1.819 1.819 0 0 0 .118-3.479l-.057-.019a1.816 1.816 0 0 0-1.06-.036l-5.588 1.523-3.228-.416a1.643 1.643 0 0 0 1.773-.93 1.52 1.52 0 0 0-.909-2.083l-7.898-3.058a7.159 7.159 0 0 0-5.451.114c-1.924.839-4.235 1.843-4.617 1.984l1.639 7.779zm-2.325-10.982l2.73 13.241-9.733 3.11V60.284z"/><path class="st5" d="M171.515 67.179c-.926-1.477 4.322-2.359 6.141-1.547 1.593.711 1.483 1.792 2.766 3.094 4.407 4.47 17.123-.153 18.846-1.516.101-.08-.02 1.263 0 1.469.114 1.184-4.385 2.434-11.299 3.891-4.392.925-7.61-1.974-11.25-2.435-3.352-.424-3.61 2.426-4.246.612-.494-1.405-.164-2.302-.958-3.568z"/><path class="st1" d="M171 63.49c.382-.141 2.693-1.144 4.617-1.984a7.159 7.159 0 0 1 5.451-.114l7.898 3.058a1.521 1.521 0 0 1 .909 2.083 1.642 1.642 0 0 1-1.773.93l-7.163-1.655"/><path class="st5" d="M171.85 66.165l-8.538 3.147.041 7.197 9.801-3.03z"/><path class="st1" d="M191.33 67.879l5.588-1.523a1.816 1.816 0 0 1 1.06.036l.057.019a1.82 1.82 0 0 1-.118 3.479l-9.214 2.313a11.987 11.987 0 0 1-8.925-1.254 5.813 5.813 0 0 0-4.771-.479l-2.368.798m-2.324-10.98l2.73 13.241-9.733 3.11V60.284z"/><circle class="st1" cx="167.818" cy="71.481" r="1.347"/><circle class="st11" cx="185.994" cy="45.802" r="12.016"/><path fill-rule="evenodd" clip-rule="evenodd" fill="none" stroke="#fff" stroke-width=".75" stroke-linecap="round" stroke-linejoin="round" stroke-miterlimit="10" d="M180.77 40.577h10.449v10.449H180.77z"/><path fill-rule="evenodd" clip-rule="evenodd" fill="#fff" stroke="#fff" stroke-width="1.5" stroke-linecap="round" stroke-linejoin="round" stroke-miterlimit="10" d="M180.77 40.577h10.449v10.449H180.77z"/><path fill="none" stroke="#2594c9" stroke-width="1.5" stroke-linecap="square" stroke-linejoin="round" stroke-miterlimit="10" d="M184.34 40.577v3.919h3.308v-3.919"/><path class="st17" d="M185.984 21.82v8.359"/><circle class="st2" cx="185.984" cy="13.838" r="4.375"/><path class="st17" d="M203.992 28.941l-5.911 5.911"/><circle class="st2" cx="209.951" cy="22.981" r="4.375"/><path class="st17" d="M167.759 29.881l5.911 5.91"/><circle class="st2" cx="161.799" cy="23.921" r="4.375"/></svg>