<svg id="Layer_1" xmlns="http://www.w3.org/2000/svg" viewBox="0 0 37.98 43.87"><style>.st0{fill:none;stroke:#78a6cb;stroke-width:1.5;stroke-linecap:round;stroke-linejoin:round;stroke-miterlimit:10}</style><path class="st0" d="M33.957 19.531V4.339h-2.983m-23.866 0H4.125V43.12h29.832V25.322m-2.983-2.85V4.339"/><path class="st0" d="M7.108 4.339v35.798h23.866V28.244"/><path class="st0" d="M14.597 2.595H7.854c-.412 0-.746.265-.746.591v3.545c0 .326.334.591.746.591h22.374c.412 0 .746-.265.746-.591V3.186c0-.326-.334-.591-.746-.591h-6.743"/><path class="st0" d="M14.597 4.051v-1.46a6.285 6.285 0 0 1 8.888 0v1.461h-8.888zm-4.506 6.095h17.9m-17.9 5.098h17.9m-17.9 5.098h17.9m-17.9 14.95h6.921m4.059 0h6.92m-17.9-4.878h6.921m4.059 0h1.961M10.091 25.44h17.9m-2.546 8.394l-4.375 1.458 1.458-4.375 5.59-5.59 2.855-2.855 2.735-2.735c.403-.403.93-.604 1.458-.604.528 0 1.056.201 1.458.604.403.403.604.93.604 1.458 0 .528-.201 1.056-.604 1.458l-2.668 2.668-2.922 2.922-5.589 5.591z"/></svg>