<svg id="ic-hand-10" xmlns="http://www.w3.org/2000/svg" viewBox="0 0 65.129 52.529"><style>.st0{fill:none;stroke:#78a6cb;stroke-width:2.25;stroke-linecap:round;stroke-linejoin:round;stroke-miterlimit:8}</style><path class="st0" d="M13.425 9.675l7.65-8.4v22.5m9.3-19.8c1.35-1.8 3.3-2.85 5.4-2.85 2.25 0 4.2 1.05 5.4 2.85 1.35 1.95 1.95 4.65 1.95 8.4s-.6 6.6-1.95 8.4c-1.35 1.8-3.3 2.85-5.4 2.85-2.1 0-4.2-1.05-5.4-2.85-1.35-1.95-1.95-4.65-1.95-8.4s.6-6.45 1.95-8.4zm-10.5 29.55l-5.25-2.55-1.5-.75c-.75-.15-1.5.45-1.8 1.2l-2.7-1.35c-.3 0-.45-.15-.75-.15-1.05 0-2.55 1.35-1.8 1.95 0 0-.9-.9-1.65-.9-.9 0-1.95 1.05-1.95 1.95s.45 1.2.45 1.2c-1.35-.45-1.8.9-1.8 1.8s1.8 1.8 1.8 1.8l19.5 9.9c3 1.5 6.6 1.8 9.75.9 3.75-1.2 8.7-2.55 11.4-3.45 4.65-1.35 8.7.9 8.7.9m-19.8-7.8l2.85-.15"/><path class="st0" d="M55.725 33.075s-4.5.45-8.4-1.8c-2.7-1.5-9-2.1-12.3-.75-1.2.45-2.7.9-4.05 1.05l-7.5 1.5c-1.65.3-3.3.6-4.95.75s-3.9.9-3.9 2.85c0 3.15 5.85 2.25 5.85 2.25l7.05-.45m30.45 12.9l-5.25-1.35c-.75-.15-1.2-.9-1.05-1.8l4.2-15.6c.15-.75.9-1.2 1.8-1.05l5.25 1.35c.75.15 1.2.9 1.05 1.8l-4.35 15.6c-.15.75-.9 1.2-1.65 1.05z"/></svg>