<svg id="icons" xmlns="http://www.w3.org/2000/svg" viewBox="0 0 36 34.5"><style>.st0{fill:none;stroke:#78a6cb;stroke-width:1.5;stroke-linecap:round;stroke-linejoin:round;stroke-miterlimit:10}</style><circle class="st0" cx="26.25" cy="9.75" r="9"/><path class="st0" d="M29.076 6.279a2.558 2.558 0 0 0-.473-.795 2.215 2.215 0 0 0-.7-.537 1.95 1.95 0 0 0-.853-.197h-1.6c-.303 0-.591.07-.854.197s-.5.311-.7.537c-.2.227-.361.496-.473.795a2.788 2.788 0 0 0 .001 1.942c.112.299.273.568.473.795.199.227.436.41.7.537.261.127.55.197.853.197h1.6c.303 0 .591.07.854.197s.5.31.7.537c.199.227.361.496.473.795.112.299.174.627.174.971s-.062.672-.174.971a2.558 2.558 0 0 1-.473.795 2.23 2.23 0 0 1-.7.537 1.957 1.957 0 0 1-.854.197h-1.6c-.303 0-.591-.07-.854-.197s-.5-.311-.7-.537a2.558 2.558 0 0 1-.473-.795M26.25 3.75v12m-21.857 18L.75 32.014l5.031-11.31 3.642 1.735zm4.523-10.163l5.551-2.922c1.425-.757 3.16-.457 4.287.731l.582.613-6.307 3.327-1.807.948"/><path class="st0" d="M12.989 25.35l4.995 3.135 5.475-2.61c1.47-.645 2.805-.735 4.005.105l1.77 1.14-9.9 5.13H5.054"/></svg>