<svg xmlns="http://www.w3.org/2000/svg" viewBox="0 0 414.5 148.4"><path d="M0 114.1h8.4V93.9h18.5v-7.1H8.4V75h20.8v-7.1H0v46.2zm54.1-6.7c-.5.1-1.3.2-2.4.3-1.1.1-2.1.1-3.1.1-2.7 0-4.6-.8-5.7-2.4-1.1-1.6-1.6-4.3-1.6-8V79.2h-8.1v19.5c0 2.4.2 4.5.7 6.5.5 2 1.3 3.7 2.4 5.1 1.1 1.4 2.6 2.5 4.5 3.3 1.9.8 4.2 1.2 7 1.2 3 0 5.7-.2 8.2-.6 2.5-.4 4.5-.8 6.1-1.2V79.2H54v28.2zm33.3-28.6l-2.1-.3c-.7-.1-1.3-.1-1.9-.1-2.8 0-5.4.3-7.8.8-2.3.5-4.3 1.1-5.8 1.6V114h8.1V86c.4-.1 1.1-.3 2.1-.5s1.9-.3 2.8-.3c1.6 0 2.9.1 4.1.4 1.2.2 2.1.5 2.8.7l1.4-6.8c-.4-.1-.9-.3-1.6-.4l-2.1-.3zm23.3-.4c-2.7 0-5.1.4-7.3 1.3-2.1.8-3.9 2-5.4 3.5-1.5 1.5-2.6 3.3-3.4 5.5-.8 2.1-1.2 4.5-1.2 7 0 2.7.4 5.1 1.1 7.2.7 2.1 1.8 3.8 3.1 5.2 1.3 1.4 2.9 2.4 4.7 3.1 1.8.7 3.9 1.1 6.1 1.1 1.7 0 3.2-.2 4.5-.6 1.3-.4 2.4-.8 3.2-1.2v1.3c0 2.6-.7 4.6-2.1 5.9-1.4 1.3-3.7 2-6.9 2-2 0-3.9-.2-5.7-.5-1.8-.4-3.3-.8-4.7-1.4l-1.5 6.9c1.6.6 3.5 1 5.5 1.4 2 .4 4.1.5 6.2.5 5.8 0 10.2-1.3 13-3.9 2.8-2.6 4.2-6.6 4.2-12.2V80.3c-1.6-.4-3.6-.9-6-1.3-2.3-.4-4.8-.6-7.4-.6zm5.4 25.4c-.7.5-1.6.9-2.8 1.3-1.1.4-2.3.5-3.6.5-2.4 0-4.3-.8-5.8-2.4-1.5-1.6-2.2-4.1-2.2-7.5 0-3.2.8-5.7 2.3-7.6 1.6-1.9 3.8-2.9 6.7-2.9 1.3 0 2.4.1 3.2.2.8.1 1.6.2 2.1.4v18zm42.6-20.5c-1.5-1.6-3.2-2.8-5.3-3.7-2.1-.9-4.3-1.3-6.8-1.3-2.4 0-4.7.4-6.7 1.3s-3.8 2.1-5.3 3.7-2.6 3.5-3.5 5.8c-.8 2.2-1.2 4.7-1.2 7.5s.4 5.3 1.2 7.5c.8 2.3 2 4.2 3.4 5.8 1.5 1.6 3.2 2.8 5.3 3.7 2 .9 4.3 1.3 6.8 1.3s4.8-.4 6.8-1.3c2.1-.9 3.8-2.1 5.3-3.7s2.6-3.5 3.4-5.8c.8-2.3 1.2-4.8 1.2-7.5 0-2.8-.4-5.3-1.2-7.5-.8-2.3-2-4.2-3.4-5.8zm-5.9 21.6c-1.5 2-3.6 3.1-6.2 3.1-2.7 0-4.7-1-6.2-3.1-1.5-2-2.2-4.8-2.2-8.3 0-3.5.7-6.2 2.2-8.2 1.5-2 3.6-3 6.2-3 2.7 0 4.7 1 6.2 3s2.2 4.8 2.2 8.2c.1 3.5-.7 6.3-2.2 8.3zm42.3-22c-1.1-1.4-2.7-2.5-4.6-3.3-1.9-.8-4.3-1.2-7.1-1.2-3 0-5.8.2-8.3.6-2.5.4-4.5.8-6.1 1.3v33.8h8.1V85.9c.5-.1 1.4-.2 2.5-.3 1.1-.1 2.2-.2 3.2-.2 1.4 0 2.5.2 3.5.6 1 .4 1.7 1 2.3 1.8.6.8 1 1.9 1.2 3.2.2 1.3.4 2.9.4 4.8v18.3h8.1V94.4c0-2.4-.2-4.5-.7-6.5-.6-1.9-1.4-3.6-2.5-5zm25.9-4.6c-2 0-4 .4-6 1.2-2 .8-3.7 1.9-5.2 3.5-1.5 1.5-2.7 3.5-3.6 5.8-.9 2.3-1.4 5-1.4 8.1 0 2.6.4 5 1.1 7.2.7 2.2 1.8 4.1 3.3 5.7 1.5 1.6 3.3 2.9 5.6 3.8 2.3.9 4.9 1.4 8 1.4 1.2 0 2.4-.1 3.5-.2 1.2-.1 2.2-.3 3.2-.5s1.9-.4 2.7-.7c.8-.2 1.4-.5 1.8-.7l-1.1-6.6c-.9.4-2.2.8-3.8 1.1-1.6.4-3.4.5-5.4.5-3.3 0-5.9-.8-7.6-2.3-1.8-1.5-2.7-3.7-3-6.5h23c0-.4.1-.9.1-1.5v-1.5c0-5.9-1.3-10.4-4-13.3-2.7-3-6.4-4.5-11.2-4.5zm-7.8 14.9c.1-1 .4-2 .7-3 .4-1 .9-1.8 1.5-2.6s1.4-1.4 2.4-1.8c.9-.5 2-.7 3.3-.7 1.2 0 2.2.2 3.1.6.9.4 1.6 1 2.2 1.7.6.7 1.1 1.6 1.4 2.6.3 1 .5 2.1.5 3.2h-15.1zm46.4 14.2c-1.1.3-2.4.5-3.9.5-2.1 0-3.6-.6-4.5-1.8-.9-1.2-1.3-3.2-1.3-6V85.9h12.4v-6.7h-12.4V68.6l-8.1 1.3v30.2c0 2.3.2 4.4.6 6.2.4 1.8 1.1 3.3 2.1 4.6 1 1.3 2.3 2.2 4 2.9 1.7.7 3.7 1 6.2 1 2 0 3.8-.2 5.3-.6 1.5-.4 2.7-.8 3.7-1.2l-1.3-6.4c-.8.2-1.7.5-2.8.8zm33.1-3.6c-1.4-1.8-2.8-3.5-4.3-5-1.5-1.6-2.9-2.9-4.2-4 2.5-2.5 5-5.1 7.4-7.8 2.5-2.7 4.8-5.2 7-7.7h-9.5c-.7.8-1.6 1.8-2.6 3-1 1.1-2.1 2.3-3.2 3.5-1.1 1.2-2.2 2.4-3.4 3.7-1.2 1.2-2.2 2.4-3.3 3.4V62.3l-8.1 1.3V114h8.1V98c1.2.9 2.4 2 3.7 3.2 1.2 1.3 2.5 2.6 3.7 4 1.2 1.4 2.3 2.9 3.4 4.4 1 1.5 2 3 2.8 4.3h9.3c-.8-1.5-1.8-3.2-3-4.9-1.1-1.7-2.4-3.4-3.8-5.2zm36.5-17.3c-.5-1.7-1.2-3.2-2.3-4.4-1.1-1.2-2.5-2.1-4.4-2.8-1.8-.7-4.1-1-6.7-1-2.2 0-4.3.2-6.3.5-2 .4-3.4.7-4.5 1.1l1 6.5c1-.4 2.2-.7 3.8-.9 1.6-.3 3.3-.4 5.1-.4 1.4 0 2.5.2 3.4.5.9.4 1.6.9 2.2 1.5.6.6.9 1.4 1.2 2.2.2.8.3 1.7.3 2.7v1.3c-1.1-.3-2.2-.5-3.1-.6-1-.1-1.9-.2-2.8-.2-1.9 0-3.7.2-5.5.6-1.8.4-3.3 1-4.6 1.9-1.3.9-2.4 2-3.2 3.4-.8 1.4-1.2 3.1-1.2 5.1 0 2.1.3 3.8 1 5.3.7 1.4 1.6 2.6 2.9 3.5 1.2.9 2.7 1.5 4.4 1.9 1.7.4 3.6.6 5.7.6 3.2 0 6-.2 8.5-.6 2.5-.4 4.4-.7 5.6-1V92.1c.2-2-.1-3.9-.5-5.6zM322 108c-1.3.3-3.2.4-5.7.4-2 0-3.7-.4-4.9-1.1-1.2-.7-1.8-2.1-1.8-4 0-1 .2-1.8.7-2.4.4-.6 1-1.1 1.8-1.5.7-.4 1.6-.6 2.5-.7.9-.1 1.8-.2 2.7-.2 1 0 2 .1 2.8.2.8.1 1.5.3 1.9.4v8.9z" fill-rule="evenodd" clip-rule="evenodd" fill="#46474f"/><path d="M351.8 148.4l-38.8-22h17c6.2 3.6 12.4 7.1 17.8 10.3V84.4c-.5-6.6-4.3-12.4-9.5-15.9l-41.2-24v18.9l-8 4.6V36l62.6-36 62.7 36v76.9l-62.6 35.5zm0-139.2C338.4 17 311.6 32.3 302 37.9c16.8 9.7 33.3 19.2 42.4 24.5 5 3.8 6.4 7 7.4 9.2.8-2.2 1.9-5.2 6.7-8.8 8.9-5.1 25.6-14.7 43.2-24.9-10.8-6.3-36.5-20.9-49.9-28.7zm54.7 35.4l-40.7 23.7c-5.4 3.5-9.4 9.4-9.9 16.2v52.3c17.1-9.9 41.2-23.9 50.7-29.3V44.6zm-24.4 55.2l-6.3 2.9v12.6l-8 4.6V107l-6.6 3 10.2-18.9 10.7 8.7z" fill-rule="evenodd" clip-rule="evenodd" fill="#2393c9"/></svg>