<svg width="88" height="25" xmlns="http://www.w3.org/2000/svg"><g fill="none" fill-rule="evenodd"><path d="M11.971 20.523V9.36c0-2.5-.987-3.779-3.08-3.779-1.51 0-2.73.698-4.01 2.093V0H.175v20.465h4.708V9.942c.58-.64 1.046-.93 1.51-.93.698 0 .872.523.872 1.57v9.941h4.707zM26.5 13.256c0-4.826-2.499-7.616-6.567-7.616-4.01 0-6.567 2.79-6.567 7.616 0 4.767 2.557 7.616 6.567 7.616 4.068 0 6.567-2.79 6.567-7.616zm-4.998 0c0 3.081-.29 4.535-1.627 4.535s-1.627-1.454-1.627-4.535c0-3.023.348-4.535 1.627-4.535 1.395 0 1.627 1.453 1.627 4.535zm25.222 7.267V9.36c0-2.558-.93-3.779-3.08-3.779-1.511 0-2.79.756-4.068 2.268-.29-1.454-1.395-2.268-2.964-2.268-1.511 0-2.673.698-4.01 2.093V5.93h-4.707v14.535h4.707V9.942c.581-.64 1.046-.93 1.51-.93.698 0 .873.523.873 1.57v9.941h4.649V10c.523-.64 1.046-.93 1.51-.93.698 0 .872.523.872 1.57v9.941h4.708v-.058zm15.749 0h4.997V15.35h-4.997v5.174zm19.41-7.79c0-4.593-1.802-7.093-4.824-7.093-1.104 0-2.15.58-3.022 1.686v-1.28h-4.59v18.838h4.707v-5.64c.755.872 1.627 1.337 2.789 1.337 3.022-.058 4.94-2.79 4.94-7.848zm-4.824.407c0 3.255 0 4.767-1.278 4.767-.465 0-.988-.29-1.511-.872v-7.79c.523-.582 1.046-.873 1.51-.873 1.28.058 1.28 1.512 1.28 4.768zm6.218 7.383h4.708V.058h-4.708v20.465z" fill="#1B1B1B"/><path d="M60.555 13.14c0-4.826-2.209-7.5-6.044-7.5-3.894 0-6.45 2.848-6.45 7.5 0 4.825 2.556 7.732 6.566 7.732 2.615 0 4.65-1.337 5.812-3.953l-3.197-1.163c-.523 1.337-1.453 2.035-2.44 2.035-1.337 0-2.093-1.221-2.093-3.547h7.846V13.14m-4.417-1.745h-3.545v-.174c0-1.686.698-2.558 1.802-2.558s1.743.872 1.743 2.5v.232" fill="#E20000"/></g></svg>